<?xml version="1.0" encoding="UTF-8"?>
<svg id="Capa_1" xmlns="http://www.w3.org/2000/svg" version="1.1" viewBox="0 0 800 800">
  <!-- Generator: Adobe Illustrator 29.6.1, SVG Export Plug-In . SVG Version: 2.1.1 Build 9)  -->
  <path d="M63.87,454.11c95.85,205.4,213.25,294.6,346.8,296.64,143.33,7.41,264.59-206.24,332.07-389.96l44.12-145.18c15.07-64.81,17.72-109.45,5.09-111.7-.62-.11-1.27.06-1.84.35-65.48,32.76-105.57,165.59-174.26,281.87-50.83,86.05-112.73,160.39-158.37,183.3-33.21,16.67-69.72,20.54-101.71,1.63-40.39-23.87-88.72-70.98-133.31-166.63-21.7-60.25-46.7-111.39-64.48-156.83-32.51-83.1-52.84-138.29-69.27-132.65C37.8,137.38,15.86,193.96,2.41,258.99c-3.12,15.08-2.58,30.71,2.31,45.3,9.52,28.38,19.33,55.22,29.4,80.65l29.74,69.16h0Z" fill="none" stroke="#1f4968" stroke-miterlimit="10"/>
  <ellipse cx="424.61" cy="184.42" rx="111.96" ry="135.49" fill="none" stroke="#1f4968" stroke-miterlimit="10"/>
</svg>